<svg xmlns="http://www.w3.org/2000/svg" viewBox="0 0 386.3 136.0" role="img" width="386.3" height="136.0">
  <title>KOVA</title>
  <path transform="translate(26.00,110.00) scale(0.12000,-0.12000)" fill="#6d28d9" d="M131 -9Q86 -9 67.0 4.5Q48 18 44.0 39.5Q40 61 40 83V600Q40 622 44.0 643.0Q48 664 67.0 677.5Q86 691 132 691Q178 691 196.5 677.5Q215 664 219.0 643.0Q223 622 223 599V461L397 660Q420 685 440.0 695.0Q460 705 481.0 699.0Q502 693 527 669Q568 632 569.0 604.0Q570 576 536 540L340 340L537 143Q574 106 571.5 76.5Q569 47 528 13Q498 -11 477.0 -17.0Q456 -23 438.0 -12.5Q420 -2 398 24L223 223V82Q223 60 219.0 39.0Q215 18 196.0 4.5Q177 -9 131 -9Z"/>
  <circle cx="140.64" cy="68.00" r="30" fill="none" stroke="#a855f7" stroke-width="16"/>
  <circle cx="140.64" cy="68.00" r="16" fill="#ff7a59"/>
  <circle cx="133.64" cy="61.00" r="5" fill="#ffffff" opacity="0.6"/>
  <path transform="translate(183.64,110.00) scale(0.12000,-0.12000)" fill="#6d28d9" d="M366 -8Q333 -8 310.0 4.5Q287 17 276 42L39 563Q20 607 29.5 632.5Q39 658 85 680Q117 698 139.5 698.5Q162 699 178.0 684.0Q194 669 206 638L364 249L522 638Q535 669 551.0 684.0Q567 699 590.0 698.0Q613 697 643 680Q693 656 701.0 631.5Q709 607 689 563L452 42Q442 20 418.5 6.0Q395 -8 366 -8Z"/>
  <path transform="translate(275.00,110.00) scale(0.12000,-0.12000)" fill="#6d28d9" d="M690 118Q705 88 706.0 67.0Q707 46 693.0 30.0Q679 14 648 -2Q600 -25 574.0 -16.5Q548 -8 525 41L355 389L187 40Q163 -7 137.0 -15.5Q111 -24 64 -1Q33 14 18.5 30.0Q4 46 5.0 67.0Q6 88 21 118L272 638Q284 662 307.5 676.5Q331 691 356 691Q374 691 389.5 684.5Q405 678 418.0 666.0Q431 654 439 637ZM197 136 273 292H438L514 136Z"/>
</svg>